<mxfile host="app.diagrams.net" modified="2023-06-10T07:00:07.871Z" agent="Mozilla/5.0 (Windows NT 10.0; Win64; x64) AppleWebKit/537.36 (KHTML, like Gecko) Chrome/114.0.0.0 Safari/537.36" etag="3yVdy6H1PLMa5huyO4Of" version="21.3.7" type="github">
  <diagram name="第 1 页" id="HSFYCEclqxv2p57zT4t5">
    <mxGraphModel dx="954" dy="676" grid="1" gridSize="10" guides="1" tooltips="1" connect="1" arrows="1" fold="1" page="1" pageScale="1" pageWidth="827" pageHeight="1169" math="0" shadow="0">
      <root>
        <mxCell id="0" />
        <mxCell id="1" parent="0" />
        <mxCell id="0KylrsAwTWrHY_KVLDP2-2" value="" style="rounded=1;whiteSpace=wrap;html=1;fillColor=#FFB570;strokeColor=none;" vertex="1" parent="1">
          <mxGeometry x="350" y="110" width="160" height="100" as="geometry" />
        </mxCell>
        <mxCell id="0KylrsAwTWrHY_KVLDP2-3" value="" style="rounded=1;whiteSpace=wrap;html=1;fillColor=#FFE5A8;strokeColor=none;" vertex="1" parent="1">
          <mxGeometry x="350" y="130" width="60" height="50" as="geometry" />
        </mxCell>
        <mxCell id="0KylrsAwTWrHY_KVLDP2-5" value="&lt;font style=&quot;font-size: 18px;&quot;&gt;D&lt;/font&gt;" style="text;html=1;strokeColor=none;fillColor=none;align=center;verticalAlign=middle;whiteSpace=wrap;rounded=0;" vertex="1" parent="1">
          <mxGeometry x="360" y="140" width="60" height="30" as="geometry" />
        </mxCell>
        <mxCell id="0KylrsAwTWrHY_KVLDP2-7" value="&lt;font style=&quot;font-size: 18px;&quot;&gt;F&lt;/font&gt;" style="text;html=1;strokeColor=none;fillColor=none;align=center;verticalAlign=middle;whiteSpace=wrap;rounded=0;" vertex="1" parent="1">
          <mxGeometry x="460" y="140" width="60" height="30" as="geometry" />
        </mxCell>
      </root>
    </mxGraphModel>
  </diagram>
</mxfile>
